<svg width="321" height="571" viewBox="0 0 321 571" fill="none" xmlns="http://www.w3.org/2000/svg">
<g id="afternoon-phase">
<g clip-path="url(#clip0)">
<g id="afternoon">
<rect id="background" width="321" height="571" fill="url(#paint0_linear)"/>
<g id="stars">
<g id="Line 61">
<line x1="19.5952" y1="141.56" x2="368.664" y2="-49.5952" stroke="#FFE3C3" stroke-opacity="0.3" stroke-width="3" stroke-linecap="round" stroke-linejoin="round" stroke-dasharray="1 80"/>
<line x1="19.5952" y1="141.56" x2="368.664" y2="-49.5952" stroke="#FFE3C3" stroke-opacity="0.3" stroke-width="3" stroke-linecap="round" stroke-linejoin="round" stroke-dasharray="1 80"/>
<line x1="19.5952" y1="141.56" x2="368.664" y2="-49.5952" stroke="#FFE3C3" stroke-opacity="0.3" stroke-width="3" stroke-linecap="round" stroke-linejoin="round" stroke-dasharray="1 80"/>
</g>
<g id="Line 62">
<line x1="74.2374" y1="202.892" x2="318.892" y2="7.7626" stroke="#FFE3C3" stroke-opacity="0.3" stroke-width="3" stroke-linecap="round" stroke-linejoin="round" stroke-dasharray="1 80"/>
<line x1="74.2374" y1="202.892" x2="318.892" y2="7.7626" stroke="#FFE3C3" stroke-opacity="0.3" stroke-width="3" stroke-linecap="round" stroke-linejoin="round" stroke-dasharray="1 80"/>
<line x1="74.2374" y1="202.892" x2="318.892" y2="7.7626" stroke="#FFE3C3" stroke-opacity="0.3" stroke-width="3" stroke-linecap="round" stroke-linejoin="round" stroke-dasharray="1 80"/>
</g>
<g id="Line 64">
<line x1="186.594" y1="188.964" x2="318.964" y2="116.406" stroke="#FFE3C3" stroke-opacity="0.3" stroke-width="3" stroke-linecap="round" stroke-linejoin="round" stroke-dasharray="1 80"/>
<line x1="186.594" y1="188.964" x2="318.964" y2="116.406" stroke="#FFE3C3" stroke-opacity="0.3" stroke-width="3" stroke-linecap="round" stroke-linejoin="round" stroke-dasharray="1 80"/>
<line x1="186.594" y1="188.964" x2="318.964" y2="116.406" stroke="#FFE3C3" stroke-opacity="0.3" stroke-width="3" stroke-linecap="round" stroke-linejoin="round" stroke-dasharray="1 80"/>
</g>
<g id="Line 65">
<line x1="267.963" y1="190.195" x2="320.195" y2="212.037" stroke="#FFE3C3" stroke-opacity="0.3" stroke-width="3" stroke-linecap="round" stroke-linejoin="round" stroke-dasharray="1 80"/>
<line x1="267.963" y1="190.195" x2="320.195" y2="212.037" stroke="#FFE3C3" stroke-opacity="0.3" stroke-width="3" stroke-linecap="round" stroke-linejoin="round" stroke-dasharray="1 80"/>
<line x1="267.963" y1="190.195" x2="320.195" y2="212.037" stroke="#FFE3C3" stroke-opacity="0.3" stroke-width="3" stroke-linecap="round" stroke-linejoin="round" stroke-dasharray="1 80"/>
</g>
<g id="Line 63">
<line x1="0.681718" y1="70.9912" x2="145.991" y2="-0.681718" stroke="#FFE3C3" stroke-opacity="0.3" stroke-width="3" stroke-linecap="round" stroke-linejoin="round" stroke-dasharray="1 80"/>
<line x1="0.681718" y1="70.9912" x2="145.991" y2="-0.681718" stroke="#FFE3C3" stroke-opacity="0.3" stroke-width="3" stroke-linecap="round" stroke-linejoin="round" stroke-dasharray="1 80"/>
<line x1="0.681718" y1="70.9912" x2="145.991" y2="-0.681718" stroke="#FFE3C3" stroke-opacity="0.3" stroke-width="3" stroke-linecap="round" stroke-linejoin="round" stroke-dasharray="1 80"/>
</g>
</g>
<g id="sun">
<circle id="Ellipse 34" cx="160.5" cy="401.5" r="74.5" fill="#FFE3C3" fill-opacity="0.15"/>
<circle id="Ellipse 33" cx="161" cy="402" r="61" fill="#FFE3C3" fill-opacity="0.3"/>
<circle id="Ellipse 32" cx="160.5" cy="401.5" r="52.5" fill="#FFE3C3"/>
</g>
<g id="clouds">
<path id="Vector 58" d="M212.5 414C175.386 387.408 133.464 412.764 134 431V489.5H335.5V376C301.676 323.782 213.095 347.471 212.5 414Z" fill="url(#paint1_linear)"/>
<path id="Vector 54" d="M176 452.5C169.5 372.5 71.5 360 40 407C26.6623 394.807 17.799 392.659 -0.5 398V517.5H248.5V488.5C253.78 439.017 202.136 426.062 176 452.5Z" fill="url(#paint2_linear)"/>
<path id="Vector 57" d="M281 474.5C278.742 424.768 321.384 414.596 346.5 429V555.5H168V536C170.167 511.3 197.207 486.884 232 509C211.769 481.722 255.921 444.51 281 474.5Z" fill="url(#paint3_linear)"/>
<path id="Vector 59" d="M279 535C289.669 499.226 315.259 495.648 340.5 501.5V578.5H233C231.768 556.056 254.187 532.259 279 535Z" fill="url(#paint4_linear)"/>
<path id="Vector 56" d="M56.9998 498C40.4649 481.66 17.6295 495.526 18.9998 524V595H252.5C263.93 555.206 224.686 521.588 192 538C207.886 509.345 169.947 480.616 146.5 504C152.253 450.333 62.1166 435.57 56.9998 498Z" fill="url(#paint5_linear)"/>
<path id="Vector 55" d="M62 511C47.6459 477.264 -3.56584 472.483 -12.5 506V582.5H171C176.084 542.197 140.219 512.446 99 533C96.519 512.569 78.6858 502.431 62 511Z" fill="url(#paint6_linear)"/>
</g>
<path id="14:00 - 22:00" d="M97.808 291.344C98.096 291.344 98.32 291.416 98.48 291.56C98.64 291.704 98.72 291.904 98.72 292.16C98.72 292.432 98.64 292.64 98.48 292.784C98.336 292.928 98.112 293 97.808 293H89.864C89.56 293 89.328 292.928 89.168 292.784C89.024 292.64 88.952 292.432 88.952 292.16C88.952 291.904 89.032 291.704 89.192 291.56C89.352 291.416 89.576 291.344 89.864 291.344H92.84V278.48L90.224 280.184C90.096 280.264 89.968 280.304 89.84 280.304C89.616 280.304 89.416 280.2 89.24 279.992C89.08 279.784 89 279.56 89 279.32C89 278.984 89.128 278.744 89.384 278.6L93.032 276.224C93.304 276.048 93.584 275.96 93.872 275.96C94.144 275.96 94.368 276.048 94.544 276.224C94.72 276.4 94.808 276.648 94.808 276.968V291.344H97.808ZM113.183 287.696C113.471 287.696 113.695 287.776 113.855 287.936C114.015 288.08 114.095 288.272 114.095 288.512C114.095 289.056 113.791 289.328 113.183 289.328H111.383V292.112C111.383 292.432 111.287 292.68 111.095 292.856C110.919 293.032 110.687 293.12 110.399 293.12C110.111 293.12 109.879 293.032 109.703 292.856C109.527 292.68 109.439 292.432 109.439 292.112V289.328H102.335C102.047 289.328 101.823 289.248 101.663 289.088C101.503 288.928 101.423 288.728 101.423 288.488C101.423 288.264 101.511 288.016 101.687 287.744L109.535 276.392C109.759 276.104 110.047 275.96 110.399 275.96C110.671 275.96 110.903 276.048 111.095 276.224C111.287 276.4 111.383 276.648 111.383 276.968V287.696H113.183ZM109.439 287.696V279.368L103.655 287.696H109.439ZM117.541 283.76C117.157 283.76 116.837 283.64 116.581 283.4C116.325 283.144 116.197 282.816 116.197 282.416C116.197 282.016 116.325 281.696 116.581 281.456C116.837 281.2 117.157 281.072 117.541 281.072C117.909 281.072 118.213 281.2 118.453 281.456C118.709 281.696 118.837 282.016 118.837 282.416C118.837 282.816 118.709 283.144 118.453 283.4C118.213 283.64 117.909 283.76 117.541 283.76ZM117.541 293.12C117.157 293.12 116.837 293 116.581 292.76C116.325 292.504 116.197 292.176 116.197 291.776C116.197 291.376 116.325 291.048 116.581 290.792C116.837 290.536 117.157 290.408 117.541 290.408C117.909 290.408 118.213 290.536 118.453 290.792C118.709 291.048 118.837 291.376 118.837 291.776C118.837 292.176 118.709 292.504 118.453 292.76C118.213 293 117.909 293.12 117.541 293.12ZM127.466 293.192C125.53 293.192 124.058 292.456 123.05 290.984C122.042 289.512 121.538 287.368 121.538 284.552C121.538 281.72 122.042 279.568 123.05 278.096C124.058 276.624 125.53 275.888 127.466 275.888C129.402 275.888 130.874 276.624 131.882 278.096C132.89 279.552 133.394 281.696 133.394 284.528C133.394 287.36 132.89 289.512 131.882 290.984C130.874 292.456 129.402 293.192 127.466 293.192ZM127.466 291.536C128.81 291.536 129.802 290.968 130.442 289.832C131.082 288.696 131.402 286.928 131.402 284.528C131.402 282.112 131.082 280.344 130.442 279.224C129.818 278.104 128.826 277.544 127.466 277.544C126.122 277.544 125.13 278.112 124.49 279.248C123.85 280.368 123.53 282.128 123.53 284.528C123.53 286.928 123.85 288.696 124.49 289.832C125.13 290.968 126.122 291.536 127.466 291.536ZM141.856 293.192C139.92 293.192 138.448 292.456 137.44 290.984C136.432 289.512 135.928 287.368 135.928 284.552C135.928 281.72 136.432 279.568 137.44 278.096C138.448 276.624 139.92 275.888 141.856 275.888C143.792 275.888 145.264 276.624 146.272 278.096C147.28 279.552 147.784 281.696 147.784 284.528C147.784 287.36 147.28 289.512 146.272 290.984C145.264 292.456 143.792 293.192 141.856 293.192ZM141.856 291.536C143.2 291.536 144.192 290.968 144.832 289.832C145.472 288.696 145.792 286.928 145.792 284.528C145.792 282.112 145.472 280.344 144.832 279.224C144.208 278.104 143.216 277.544 141.856 277.544C140.512 277.544 139.52 278.112 138.88 279.248C138.24 280.368 137.92 282.128 137.92 284.528C137.92 286.928 138.24 288.696 138.88 289.832C139.52 290.968 140.512 291.536 141.856 291.536ZM157.682 287.408C157.394 287.408 157.17 287.336 157.01 287.192C156.866 287.048 156.794 286.856 156.794 286.616C156.794 286.376 156.866 286.184 157.01 286.04C157.17 285.88 157.394 285.8 157.682 285.8H162.962C163.266 285.8 163.49 285.88 163.634 286.04C163.794 286.184 163.874 286.376 163.874 286.616C163.874 286.856 163.794 287.048 163.634 287.192C163.49 287.336 163.266 287.408 162.962 287.408H157.682ZM183.809 291.344C184.097 291.344 184.321 291.416 184.481 291.56C184.641 291.704 184.721 291.904 184.721 292.16C184.721 292.72 184.417 293 183.809 293H174.401C174.129 293 173.905 292.92 173.729 292.76C173.553 292.584 173.465 292.376 173.465 292.136C173.465 291.832 173.577 291.568 173.801 291.344L179.585 284.984C180.385 284.088 180.961 283.288 181.313 282.584C181.681 281.864 181.865 281.144 181.865 280.424C181.865 279.496 181.593 278.784 181.049 278.288C180.521 277.792 179.769 277.544 178.793 277.544C178.025 277.544 177.289 277.688 176.585 277.976C175.881 278.248 175.177 278.672 174.473 279.248C174.233 279.44 174.009 279.536 173.801 279.536C173.625 279.536 173.473 279.456 173.345 279.296C173.217 279.12 173.153 278.912 173.153 278.672C173.153 278.336 173.281 278.064 173.537 277.856C174.193 277.248 174.993 276.768 175.937 276.416C176.881 276.064 177.849 275.888 178.841 275.888C180.361 275.888 181.569 276.288 182.465 277.088C183.377 277.888 183.833 278.968 183.833 280.328C183.833 281.304 183.609 282.24 183.161 283.136C182.729 284.032 182.009 285.032 181.001 286.136L176.201 291.344H183.809ZM198.2 291.344C198.488 291.344 198.712 291.416 198.872 291.56C199.032 291.704 199.112 291.904 199.112 292.16C199.112 292.72 198.808 293 198.2 293H188.792C188.52 293 188.296 292.92 188.12 292.76C187.944 292.584 187.856 292.376 187.856 292.136C187.856 291.832 187.968 291.568 188.192 291.344L193.976 284.984C194.776 284.088 195.352 283.288 195.704 282.584C196.072 281.864 196.256 281.144 196.256 280.424C196.256 279.496 195.984 278.784 195.44 278.288C194.912 277.792 194.16 277.544 193.184 277.544C192.416 277.544 191.68 277.688 190.976 277.976C190.272 278.248 189.568 278.672 188.864 279.248C188.624 279.44 188.4 279.536 188.192 279.536C188.016 279.536 187.864 279.456 187.736 279.296C187.608 279.12 187.544 278.912 187.544 278.672C187.544 278.336 187.672 278.064 187.928 277.856C188.584 277.248 189.384 276.768 190.328 276.416C191.272 276.064 192.24 275.888 193.232 275.888C194.752 275.888 195.96 276.288 196.856 277.088C197.768 277.888 198.224 278.968 198.224 280.328C198.224 281.304 198 282.24 197.552 283.136C197.12 284.032 196.4 285.032 195.392 286.136L190.592 291.344H198.2ZM203.158 283.76C202.774 283.76 202.454 283.64 202.198 283.4C201.942 283.144 201.814 282.816 201.814 282.416C201.814 282.016 201.942 281.696 202.198 281.456C202.454 281.2 202.774 281.072 203.158 281.072C203.526 281.072 203.83 281.2 204.07 281.456C204.326 281.696 204.454 282.016 204.454 282.416C204.454 282.816 204.326 283.144 204.07 283.4C203.83 283.64 203.526 283.76 203.158 283.76ZM203.158 293.12C202.774 293.12 202.454 293 202.198 292.76C201.942 292.504 201.814 292.176 201.814 291.776C201.814 291.376 201.942 291.048 202.198 290.792C202.454 290.536 202.774 290.408 203.158 290.408C203.526 290.408 203.83 290.536 204.07 290.792C204.326 291.048 204.454 291.376 204.454 291.776C204.454 292.176 204.326 292.504 204.07 292.76C203.83 293 203.526 293.12 203.158 293.12ZM213.083 293.192C211.147 293.192 209.675 292.456 208.667 290.984C207.659 289.512 207.155 287.368 207.155 284.552C207.155 281.72 207.659 279.568 208.667 278.096C209.675 276.624 211.147 275.888 213.083 275.888C215.019 275.888 216.491 276.624 217.499 278.096C218.507 279.552 219.011 281.696 219.011 284.528C219.011 287.36 218.507 289.512 217.499 290.984C216.491 292.456 215.019 293.192 213.083 293.192ZM213.083 291.536C214.427 291.536 215.419 290.968 216.059 289.832C216.699 288.696 217.019 286.928 217.019 284.528C217.019 282.112 216.699 280.344 216.059 279.224C215.435 278.104 214.443 277.544 213.083 277.544C211.739 277.544 210.747 278.112 210.107 279.248C209.467 280.368 209.147 282.128 209.147 284.528C209.147 286.928 209.467 288.696 210.107 289.832C210.747 290.968 211.739 291.536 213.083 291.536ZM227.473 293.192C225.537 293.192 224.065 292.456 223.057 290.984C222.049 289.512 221.545 287.368 221.545 284.552C221.545 281.72 222.049 279.568 223.057 278.096C224.065 276.624 225.537 275.888 227.473 275.888C229.409 275.888 230.881 276.624 231.889 278.096C232.897 279.552 233.401 281.696 233.401 284.528C233.401 287.36 232.897 289.512 231.889 290.984C230.881 292.456 229.409 293.192 227.473 293.192ZM227.473 291.536C228.817 291.536 229.809 290.968 230.449 289.832C231.089 288.696 231.409 286.928 231.409 284.528C231.409 282.112 231.089 280.344 230.449 279.224C229.825 278.104 228.833 277.544 227.473 277.544C226.129 277.544 225.137 278.112 224.497 279.248C223.857 280.368 223.537 282.128 223.537 284.528C223.537 286.928 223.857 288.696 224.497 289.832C225.137 290.968 226.129 291.536 227.473 291.536Z" fill="white"/>
</g>
</g>
</g>
<defs>
<linearGradient id="paint0_linear" x1="321" y1="-2.55257e-05" x2="-8.14276e-06" y2="571" gradientUnits="userSpaceOnUse">
<stop stop-color="#5F21E3"/>
<stop offset="1" stop-color="#FFA38F"/>
</linearGradient>
<linearGradient id="paint1_linear" x1="327" y1="585.5" x2="195" y2="356.5" gradientUnits="userSpaceOnUse">
<stop stop-color="#BB47D8"/>
<stop offset="1" stop-color="#FFEAA0"/>
</linearGradient>
<linearGradient id="paint2_linear" x1="157" y1="316" x2="96" y2="525" gradientUnits="userSpaceOnUse">
<stop stop-color="#AA67FF"/>
<stop offset="1" stop-color="#FFC0DA"/>
</linearGradient>
<linearGradient id="paint3_linear" x1="320.5" y1="334.5" x2="237.5" y2="583.5" gradientUnits="userSpaceOnUse">
<stop stop-color="#ED4264"/>
<stop offset="1" stop-color="#FFEDBC"/>
</linearGradient>
<linearGradient id="paint4_linear" x1="242" y1="481.5" x2="322.5" y2="594" gradientUnits="userSpaceOnUse">
<stop offset="0.0001" stop-color="#AA67FF"/>
<stop offset="1" stop-color="#FFC0CB"/>
</linearGradient>
<linearGradient id="paint5_linear" x1="214.5" y1="468.5" x2="143.5" y2="595" gradientUnits="userSpaceOnUse">
<stop stop-color="#FE5185"/>
<stop offset="1" stop-color="#FFEDBC"/>
</linearGradient>
<linearGradient id="paint6_linear" x1="107" y1="457" x2="57.5" y2="582" gradientUnits="userSpaceOnUse">
<stop stop-color="#AA67FF"/>
<stop offset="1" stop-color="#FFC0CB"/>
</linearGradient>
<clipPath id="clip0">
<rect width="321" height="571" rx="15" fill="white"/>
</clipPath>
</defs>
</svg>
