<svg width="321" height="571" viewBox="0 0 321 571" fill="none" xmlns="http://www.w3.org/2000/svg">
<g id="all-day">
<g clip-path="url(#clip0)">
<g id="morning">
<rect id="background" width="321" height="571" fill="url(#paint0_linear)"/>
<g id="sun">
<circle id="Ellipse 34" cx="163.5" cy="153.5" r="74.5" fill="#FEE567" fill-opacity="0.15"/>
<circle id="Ellipse 33" cx="164" cy="154" r="61" fill="#FEE567" fill-opacity="0.3"/>
<circle id="Ellipse 32" cx="163.5" cy="153.5" r="52.5" fill="#FEE567"/>
</g>
<g id="clouds">
<path id="Vector 58" d="M212.5 414C175.386 387.408 133.464 412.764 134 431V489.5H335.5V376C301.676 323.782 213.095 347.471 212.5 414Z" fill="url(#paint1_linear)"/>
<path id="Vector 54" d="M176 452.5C169.5 372.5 71.5 360 40 407C26.6623 394.807 17.799 392.659 -0.5 398V517.5H248.5V488.5C253.78 439.017 202.136 426.062 176 452.5Z" fill="url(#paint2_linear)"/>
<path id="Vector 57" d="M281 474.5C278.742 424.768 321.384 414.596 346.5 429V555.5H168V536C170.167 511.3 197.207 486.884 232 509C211.769 481.722 255.921 444.51 281 474.5Z" fill="url(#paint3_linear)"/>
<path id="Vector 56" d="M56.9998 498C40.4649 481.66 17.6295 495.526 18.9998 524V595H252.5C263.93 555.206 224.686 521.588 192 538C207.886 509.345 169.947 480.616 146.5 504C152.253 450.333 62.1166 435.57 56.9998 498Z" fill="url(#paint4_linear)"/>
<path id="Vector 59" d="M279 535C289.669 499.226 315.259 495.648 340.5 501.5V578.5H233C231.768 556.056 254.187 532.259 279 535Z" fill="url(#paint5_linear)"/>
<path id="Vector 55" d="M62 511C47.6459 477.264 -3.56584 472.483 -12.5 506V582.5H171C176.084 542.197 140.219 512.446 99 533C96.519 512.569 78.6858 502.431 62 511Z" fill="url(#paint6_linear)"/>
</g>
<path id="Hakuna Matata" d="M101.144 275.96C101.448 275.96 101.68 276.056 101.84 276.248C102.016 276.424 102.104 276.664 102.104 276.968V292.112C102.104 292.416 102.016 292.664 101.84 292.856C101.68 293.032 101.448 293.12 101.144 293.12C100.84 293.12 100.6 293.032 100.424 292.856C100.248 292.664 100.16 292.416 100.16 292.112V285.248H90.032V292.112C90.032 292.416 89.944 292.664 89.768 292.856C89.592 293.032 89.352 293.12 89.048 293.12C88.744 293.12 88.504 293.032 88.328 292.856C88.168 292.664 88.088 292.416 88.088 292.112V276.968C88.088 276.664 88.168 276.424 88.328 276.248C88.504 276.056 88.744 275.96 89.048 275.96C89.352 275.96 89.592 276.056 89.768 276.248C89.944 276.424 90.032 276.664 90.032 276.968V283.568H100.16V276.968C100.16 276.664 100.248 276.424 100.424 276.248C100.6 276.056 100.84 275.96 101.144 275.96ZM110.764 281.024C113.692 281.024 115.156 282.56 115.156 285.632V292.16C115.156 292.448 115.068 292.68 114.892 292.856C114.732 293.032 114.508 293.12 114.22 293.12C113.932 293.12 113.7 293.032 113.524 292.856C113.348 292.68 113.26 292.448 113.26 292.16V291.008C112.956 291.696 112.492 292.232 111.868 292.616C111.244 292.984 110.524 293.168 109.708 293.168C108.956 293.168 108.26 293.016 107.62 292.712C106.996 292.408 106.5 291.984 106.132 291.44C105.764 290.896 105.58 290.296 105.58 289.64C105.58 288.76 105.804 288.08 106.252 287.6C106.7 287.104 107.436 286.752 108.46 286.544C109.484 286.32 110.908 286.208 112.732 286.208H113.26V285.416C113.26 284.456 113.06 283.752 112.66 283.304C112.276 282.856 111.644 282.632 110.764 282.632C109.676 282.632 108.572 282.928 107.452 283.52C107.02 283.792 106.716 283.928 106.54 283.928C106.348 283.928 106.188 283.856 106.06 283.712C105.932 283.568 105.868 283.384 105.868 283.16C105.868 282.936 105.932 282.744 106.06 282.584C106.204 282.408 106.428 282.232 106.732 282.056C107.292 281.736 107.924 281.488 108.628 281.312C109.348 281.12 110.06 281.024 110.764 281.024ZM109.972 291.632C110.932 291.632 111.716 291.312 112.324 290.672C112.948 290.016 113.26 289.176 113.26 288.152V287.456H112.828C111.42 287.456 110.348 287.52 109.612 287.648C108.876 287.76 108.348 287.96 108.028 288.248C107.724 288.52 107.572 288.928 107.572 289.472C107.572 290.096 107.796 290.616 108.244 291.032C108.708 291.432 109.284 291.632 109.972 291.632ZM128.05 291.464C128.306 291.704 128.434 291.96 128.434 292.232C128.434 292.472 128.346 292.68 128.17 292.856C128.01 293.032 127.81 293.12 127.57 293.12C127.362 293.12 127.146 293.024 126.922 292.832L120.658 287.432V292.16C120.658 292.464 120.562 292.704 120.37 292.88C120.194 293.04 119.97 293.12 119.698 293.12C119.41 293.12 119.17 293.04 118.978 292.88C118.802 292.704 118.714 292.464 118.714 292.16V276.92C118.714 276.616 118.802 276.384 118.978 276.224C119.17 276.048 119.41 275.96 119.698 275.96C119.97 275.96 120.194 276.048 120.37 276.224C120.562 276.384 120.658 276.616 120.658 276.92V286.664L126.394 281.408C126.586 281.216 126.802 281.12 127.042 281.12C127.282 281.12 127.49 281.208 127.666 281.384C127.842 281.56 127.93 281.768 127.93 282.008C127.93 282.28 127.818 282.52 127.594 282.728L122.866 286.952L128.05 291.464ZM139.594 281.072C139.898 281.072 140.13 281.16 140.29 281.336C140.466 281.512 140.554 281.744 140.554 282.032V292.184C140.554 292.456 140.466 292.68 140.29 292.856C140.13 293.032 139.898 293.12 139.594 293.12C139.306 293.12 139.074 293.04 138.898 292.88C138.738 292.704 138.658 292.48 138.658 292.208V291.008C138.29 291.712 137.77 292.248 137.098 292.616C136.442 292.984 135.698 293.168 134.866 293.168C133.474 293.168 132.426 292.784 131.722 292.016C131.018 291.232 130.666 290.08 130.666 288.56V282.032C130.666 281.744 130.754 281.512 130.93 281.336C131.106 281.16 131.346 281.072 131.65 281.072C131.954 281.072 132.186 281.16 132.346 281.336C132.522 281.512 132.61 281.744 132.61 282.032V288.512C132.61 289.552 132.818 290.32 133.234 290.816C133.65 291.296 134.306 291.536 135.202 291.536C136.226 291.536 137.05 291.208 137.674 290.552C138.298 289.88 138.61 289 138.61 287.912V282.032C138.61 281.744 138.698 281.512 138.874 281.336C139.05 281.16 139.29 281.072 139.594 281.072ZM150.047 281.024C152.847 281.024 154.247 282.568 154.247 285.656V292.16C154.247 292.464 154.159 292.704 153.983 292.88C153.823 293.04 153.591 293.12 153.287 293.12C152.983 293.12 152.743 293.04 152.567 292.88C152.391 292.704 152.303 292.464 152.303 292.16V285.776C152.303 284.688 152.087 283.896 151.655 283.4C151.239 282.904 150.567 282.656 149.639 282.656C148.567 282.656 147.711 282.984 147.071 283.64C146.431 284.296 146.111 285.184 146.111 286.304V292.16C146.111 292.464 146.023 292.704 145.847 292.88C145.687 293.04 145.455 293.12 145.151 293.12C144.847 293.12 144.607 293.04 144.431 292.88C144.255 292.704 144.167 292.464 144.167 292.16V282.032C144.167 281.744 144.255 281.512 144.431 281.336C144.607 281.16 144.847 281.072 145.151 281.072C145.439 281.072 145.663 281.16 145.823 281.336C145.999 281.512 146.087 281.736 146.087 282.008V283.232C146.471 282.512 147.007 281.968 147.695 281.6C148.383 281.216 149.167 281.024 150.047 281.024ZM162.584 281.024C165.512 281.024 166.976 282.56 166.976 285.632V292.16C166.976 292.448 166.888 292.68 166.712 292.856C166.552 293.032 166.328 293.12 166.04 293.12C165.752 293.12 165.52 293.032 165.344 292.856C165.168 292.68 165.08 292.448 165.08 292.16V291.008C164.776 291.696 164.312 292.232 163.688 292.616C163.064 292.984 162.344 293.168 161.528 293.168C160.776 293.168 160.08 293.016 159.44 292.712C158.816 292.408 158.32 291.984 157.952 291.44C157.584 290.896 157.4 290.296 157.4 289.64C157.4 288.76 157.624 288.08 158.072 287.6C158.52 287.104 159.256 286.752 160.28 286.544C161.304 286.32 162.728 286.208 164.552 286.208H165.08V285.416C165.08 284.456 164.88 283.752 164.48 283.304C164.096 282.856 163.464 282.632 162.584 282.632C161.496 282.632 160.392 282.928 159.272 283.52C158.84 283.792 158.536 283.928 158.36 283.928C158.168 283.928 158.008 283.856 157.88 283.712C157.752 283.568 157.688 283.384 157.688 283.16C157.688 282.936 157.752 282.744 157.88 282.584C158.024 282.408 158.248 282.232 158.552 282.056C159.112 281.736 159.744 281.488 160.448 281.312C161.168 281.12 161.88 281.024 162.584 281.024ZM161.792 291.632C162.752 291.632 163.536 291.312 164.144 290.672C164.768 290.016 165.08 289.176 165.08 288.152V287.456H164.648C163.24 287.456 162.168 287.52 161.432 287.648C160.696 287.76 160.168 287.96 159.848 288.248C159.544 288.52 159.392 288.928 159.392 289.472C159.392 290.096 159.616 290.616 160.064 291.032C160.528 291.432 161.104 291.632 161.792 291.632ZM192.034 275.96C192.338 275.96 192.57 276.056 192.73 276.248C192.906 276.424 192.994 276.664 192.994 276.968V292.16C192.994 292.448 192.914 292.68 192.754 292.856C192.594 293.032 192.37 293.12 192.082 293.12C191.794 293.12 191.578 293.032 191.434 292.856C191.29 292.68 191.218 292.448 191.218 292.16V279.896L186.01 289.88C185.786 290.344 185.458 290.576 185.026 290.576C184.61 290.576 184.282 290.344 184.042 289.88L178.81 280.016V292.16C178.81 292.448 178.73 292.68 178.57 292.856C178.426 293.032 178.21 293.12 177.922 293.12C177.634 293.12 177.41 293.032 177.25 292.856C177.09 292.68 177.01 292.448 177.01 292.16V276.968C177.01 276.664 177.098 276.424 177.274 276.248C177.45 276.056 177.69 275.96 177.994 275.96C178.394 275.96 178.714 276.192 178.954 276.656L185.05 288.344L191.074 276.656C191.202 276.4 191.338 276.224 191.482 276.128C191.642 276.016 191.826 275.96 192.034 275.96ZM201.678 281.024C204.606 281.024 206.07 282.56 206.07 285.632V292.16C206.07 292.448 205.982 292.68 205.806 292.856C205.646 293.032 205.422 293.12 205.134 293.12C204.846 293.12 204.614 293.032 204.438 292.856C204.262 292.68 204.174 292.448 204.174 292.16V291.008C203.87 291.696 203.406 292.232 202.782 292.616C202.158 292.984 201.438 293.168 200.622 293.168C199.87 293.168 199.174 293.016 198.534 292.712C197.91 292.408 197.414 291.984 197.046 291.44C196.678 290.896 196.494 290.296 196.494 289.64C196.494 288.76 196.718 288.08 197.166 287.6C197.614 287.104 198.35 286.752 199.374 286.544C200.398 286.32 201.822 286.208 203.646 286.208H204.174V285.416C204.174 284.456 203.974 283.752 203.574 283.304C203.19 282.856 202.558 282.632 201.678 282.632C200.59 282.632 199.486 282.928 198.366 283.52C197.934 283.792 197.63 283.928 197.454 283.928C197.262 283.928 197.102 283.856 196.974 283.712C196.846 283.568 196.782 283.384 196.782 283.16C196.782 282.936 196.846 282.744 196.974 282.584C197.118 282.408 197.342 282.232 197.646 282.056C198.206 281.736 198.838 281.488 199.542 281.312C200.262 281.12 200.974 281.024 201.678 281.024ZM200.886 291.632C201.846 291.632 202.63 291.312 203.238 290.672C203.862 290.016 204.174 289.176 204.174 288.152V287.456H203.742C202.334 287.456 201.262 287.52 200.526 287.648C199.79 287.76 199.262 287.96 198.942 288.248C198.638 288.52 198.486 288.928 198.486 289.472C198.486 290.096 198.71 290.616 199.158 291.032C199.622 291.432 200.198 291.632 200.886 291.632ZM215.028 291.584C215.588 291.632 215.868 291.888 215.868 292.352C215.868 292.624 215.764 292.832 215.556 292.976C215.364 293.104 215.068 293.152 214.668 293.12L214.02 293.072C212.74 292.976 211.796 292.592 211.188 291.92C210.58 291.248 210.276 290.232 210.276 288.872V282.848H208.668C208.396 282.848 208.18 282.784 208.02 282.656C207.876 282.512 207.804 282.328 207.804 282.104C207.804 281.864 207.876 281.672 208.02 281.528C208.18 281.384 208.396 281.312 208.668 281.312H210.276V278.6C210.276 278.296 210.364 278.064 210.54 277.904C210.716 277.728 210.956 277.64 211.26 277.64C211.548 277.64 211.78 277.728 211.956 277.904C212.132 278.064 212.22 278.296 212.22 278.6V281.312H214.884C215.14 281.312 215.34 281.384 215.484 281.528C215.644 281.672 215.724 281.864 215.724 282.104C215.724 282.328 215.644 282.512 215.484 282.656C215.34 282.784 215.14 282.848 214.884 282.848H212.22V288.968C212.22 289.848 212.396 290.488 212.748 290.888C213.116 291.272 213.66 291.488 214.38 291.536L215.028 291.584ZM222.56 281.024C225.488 281.024 226.952 282.56 226.952 285.632V292.16C226.952 292.448 226.864 292.68 226.688 292.856C226.528 293.032 226.304 293.12 226.016 293.12C225.728 293.12 225.496 293.032 225.32 292.856C225.144 292.68 225.056 292.448 225.056 292.16V291.008C224.752 291.696 224.288 292.232 223.664 292.616C223.04 292.984 222.32 293.168 221.504 293.168C220.752 293.168 220.056 293.016 219.416 292.712C218.792 292.408 218.296 291.984 217.928 291.44C217.56 290.896 217.376 290.296 217.376 289.64C217.376 288.76 217.6 288.08 218.048 287.6C218.496 287.104 219.232 286.752 220.256 286.544C221.28 286.32 222.704 286.208 224.528 286.208H225.056V285.416C225.056 284.456 224.856 283.752 224.456 283.304C224.072 282.856 223.44 282.632 222.56 282.632C221.472 282.632 220.368 282.928 219.248 283.52C218.816 283.792 218.512 283.928 218.336 283.928C218.144 283.928 217.984 283.856 217.856 283.712C217.728 283.568 217.664 283.384 217.664 283.16C217.664 282.936 217.728 282.744 217.856 282.584C218 282.408 218.224 282.232 218.528 282.056C219.088 281.736 219.72 281.488 220.424 281.312C221.144 281.12 221.856 281.024 222.56 281.024ZM221.768 291.632C222.728 291.632 223.512 291.312 224.12 290.672C224.744 290.016 225.056 289.176 225.056 288.152V287.456H224.624C223.216 287.456 222.144 287.52 221.408 287.648C220.672 287.76 220.144 287.96 219.824 288.248C219.52 288.52 219.368 288.928 219.368 289.472C219.368 290.096 219.592 290.616 220.04 291.032C220.504 291.432 221.08 291.632 221.768 291.632ZM235.911 291.584C236.471 291.632 236.751 291.888 236.751 292.352C236.751 292.624 236.647 292.832 236.439 292.976C236.247 293.104 235.951 293.152 235.551 293.12L234.903 293.072C233.623 292.976 232.679 292.592 232.071 291.92C231.463 291.248 231.159 290.232 231.159 288.872V282.848H229.551C229.279 282.848 229.063 282.784 228.903 282.656C228.759 282.512 228.687 282.328 228.687 282.104C228.687 281.864 228.759 281.672 228.903 281.528C229.063 281.384 229.279 281.312 229.551 281.312H231.159V278.6C231.159 278.296 231.247 278.064 231.423 277.904C231.599 277.728 231.839 277.64 232.143 277.64C232.431 277.64 232.663 277.728 232.839 277.904C233.015 278.064 233.103 278.296 233.103 278.6V281.312H235.767C236.023 281.312 236.223 281.384 236.367 281.528C236.527 281.672 236.607 281.864 236.607 282.104C236.607 282.328 236.527 282.512 236.367 282.656C236.223 282.784 236.023 282.848 235.767 282.848H233.103V288.968C233.103 289.848 233.279 290.488 233.631 290.888C233.999 291.272 234.543 291.488 235.263 291.536L235.911 291.584ZM243.443 281.024C246.371 281.024 247.835 282.56 247.835 285.632V292.16C247.835 292.448 247.747 292.68 247.571 292.856C247.411 293.032 247.187 293.12 246.899 293.12C246.611 293.12 246.379 293.032 246.203 292.856C246.027 292.68 245.939 292.448 245.939 292.16V291.008C245.635 291.696 245.171 292.232 244.547 292.616C243.923 292.984 243.203 293.168 242.387 293.168C241.635 293.168 240.939 293.016 240.299 292.712C239.675 292.408 239.179 291.984 238.811 291.44C238.443 290.896 238.259 290.296 238.259 289.64C238.259 288.76 238.483 288.08 238.931 287.6C239.379 287.104 240.115 286.752 241.139 286.544C242.163 286.32 243.587 286.208 245.411 286.208H245.939V285.416C245.939 284.456 245.739 283.752 245.339 283.304C244.955 282.856 244.323 282.632 243.443 282.632C242.355 282.632 241.251 282.928 240.131 283.52C239.699 283.792 239.395 283.928 239.219 283.928C239.027 283.928 238.867 283.856 238.739 283.712C238.611 283.568 238.547 283.384 238.547 283.16C238.547 282.936 238.611 282.744 238.739 282.584C238.883 282.408 239.107 282.232 239.411 282.056C239.971 281.736 240.603 281.488 241.307 281.312C242.027 281.12 242.739 281.024 243.443 281.024ZM242.651 291.632C243.611 291.632 244.395 291.312 245.003 290.672C245.627 290.016 245.939 289.176 245.939 288.152V287.456H245.507C244.099 287.456 243.027 287.52 242.291 287.648C241.555 287.76 241.027 287.96 240.707 288.248C240.403 288.52 240.251 288.928 240.251 289.472C240.251 290.096 240.475 290.616 240.923 291.032C241.387 291.432 241.963 291.632 242.651 291.632Z" fill="white"/>
</g>
</g>
</g>
<defs>
<linearGradient id="paint0_linear" x1="161" y1="0" x2="161" y2="578.5" gradientUnits="userSpaceOnUse">
<stop stop-color="#63CBA5"/>
<stop offset="1" stop-color="#ECFFA2"/>
</linearGradient>
<linearGradient id="paint1_linear" x1="248" y1="330.5" x2="287.5" y2="478.5" gradientUnits="userSpaceOnUse">
<stop stop-color="#A2EC74"/>
<stop offset="1" stop-color="#56CCF2" stop-opacity="0.75"/>
</linearGradient>
<linearGradient id="paint2_linear" x1="129" y1="385.5" x2="96" y2="525" gradientUnits="userSpaceOnUse">
<stop stop-color="#A2EC74"/>
<stop offset="1" stop-color="#56CCF2"/>
</linearGradient>
<linearGradient id="paint3_linear" x1="248.5" y1="451.5" x2="297.5" y2="551" gradientUnits="userSpaceOnUse">
<stop stop-color="#A2EC74"/>
<stop offset="1" stop-color="#56CCF2"/>
</linearGradient>
<linearGradient id="paint4_linear" x1="163" y1="461.5" x2="155" y2="595" gradientUnits="userSpaceOnUse">
<stop stop-color="#A2EC74"/>
<stop offset="1" stop-color="#56CCF2"/>
</linearGradient>
<linearGradient id="paint5_linear" x1="272" y1="520" x2="303" y2="579" gradientUnits="userSpaceOnUse">
<stop stop-color="#A2EC74"/>
<stop offset="1" stop-color="#56CCF2"/>
</linearGradient>
<linearGradient id="paint6_linear" x1="92" y1="505.5" x2="62" y2="589" gradientUnits="userSpaceOnUse">
<stop stop-color="#A2EC74"/>
<stop offset="1" stop-color="#56CCF2"/>
</linearGradient>
<clipPath id="clip0">
<rect width="321" height="571" rx="15" fill="white"/>
</clipPath>
</defs>
</svg>
