<svg width="321" height="571" viewBox="0 0 321 571" fill="none" xmlns="http://www.w3.org/2000/svg">
<g id="morning-phase">
<g clip-path="url(#clip0)">
<g id="morning">
<rect id="background" width="321" height="571" fill="url(#paint0_linear)"/>
<g id="sun">
<circle id="Ellipse 34" cx="163.5" cy="153.5" r="74.5" fill="#FEE567" fill-opacity="0.15"/>
<circle id="Ellipse 33" cx="164" cy="154" r="61" fill="#FEE567" fill-opacity="0.3"/>
<circle id="Ellipse 32" cx="163.5" cy="153.5" r="52.5" fill="#FEE567"/>
</g>
<g id="clouds">
<path id="Vector 58" d="M212.5 414C175.386 387.408 133.464 412.764 134 431V489.5H335.5V376C301.676 323.782 213.095 347.471 212.5 414Z" fill="url(#paint1_linear)"/>
<path id="Vector 54" d="M176 452.5C169.5 372.5 71.5 360 40 407C26.6623 394.807 17.799 392.659 -0.5 398V517.5H248.5V488.5C253.78 439.017 202.136 426.062 176 452.5Z" fill="url(#paint2_linear)"/>
<path id="Vector 57" d="M281 474.5C278.742 424.768 321.384 414.596 346.5 429V555.5H168V536C170.167 511.3 197.207 486.884 232 509C211.769 481.722 255.921 444.51 281 474.5Z" fill="url(#paint3_linear)"/>
<path id="Vector 56" d="M56.9998 498C40.4649 481.66 17.6295 495.526 18.9998 524V595H252.5C263.93 555.206 224.686 521.588 192 538C207.886 509.345 169.947 480.616 146.5 504C152.253 450.333 62.1166 435.57 56.9998 498Z" fill="url(#paint4_linear)"/>
<path id="Vector 59" d="M279 535C289.669 499.226 315.259 495.648 340.5 501.5V578.5H233C231.768 556.056 254.187 532.259 279 535Z" fill="url(#paint5_linear)"/>
<path id="Vector 55" d="M62 511C47.6459 477.264 -3.56584 472.483 -12.5 506V582.5H171C176.084 542.197 140.219 512.446 99 533C96.519 512.569 78.6858 502.431 62 511Z" fill="url(#paint6_linear)"/>
</g>
<path id="6:00 - 14:00" d="M101.271 282.368C102.295 282.368 103.207 282.592 104.007 283.04C104.807 283.488 105.431 284.12 105.879 284.936C106.327 285.752 106.551 286.688 106.551 287.744C106.551 288.784 106.319 289.72 105.855 290.552C105.391 291.384 104.743 292.032 103.911 292.496C103.079 292.96 102.143 293.192 101.103 293.192C99.055 293.192 97.471 292.48 96.351 291.056C95.247 289.632 94.695 287.6 94.695 284.96C94.695 283.072 94.951 281.448 95.463 280.088C95.975 278.728 96.719 277.688 97.695 276.968C98.671 276.248 99.831 275.888 101.175 275.888C102.087 275.888 102.991 276.064 103.887 276.416C104.799 276.768 105.575 277.248 106.215 277.856C106.487 278.112 106.623 278.384 106.623 278.672C106.623 278.912 106.559 279.112 106.431 279.272C106.303 279.432 106.151 279.512 105.975 279.512C105.751 279.512 105.519 279.424 105.279 279.248C103.887 278.112 102.535 277.544 101.223 277.544C99.799 277.544 98.687 278.192 97.887 279.488C97.087 280.784 96.687 282.6 96.687 284.936V285.248C97.055 284.352 97.647 283.648 98.463 283.136C99.295 282.624 100.231 282.368 101.271 282.368ZM101.007 291.536C102.095 291.536 102.967 291.192 103.623 290.504C104.279 289.816 104.607 288.904 104.607 287.768C104.607 286.632 104.271 285.728 103.599 285.056C102.943 284.368 102.071 284.024 100.983 284.024C99.879 284.024 98.975 284.376 98.271 285.08C97.583 285.768 97.239 286.664 97.239 287.768C97.239 288.888 97.583 289.8 98.271 290.504C98.975 291.192 99.887 291.536 101.007 291.536ZM110.502 283.76C110.118 283.76 109.798 283.64 109.542 283.4C109.286 283.144 109.158 282.816 109.158 282.416C109.158 282.016 109.286 281.696 109.542 281.456C109.798 281.2 110.118 281.072 110.502 281.072C110.87 281.072 111.174 281.2 111.414 281.456C111.67 281.696 111.798 282.016 111.798 282.416C111.798 282.816 111.67 283.144 111.414 283.4C111.174 283.64 110.87 283.76 110.502 283.76ZM110.502 293.12C110.118 293.12 109.798 293 109.542 292.76C109.286 292.504 109.158 292.176 109.158 291.776C109.158 291.376 109.286 291.048 109.542 290.792C109.798 290.536 110.118 290.408 110.502 290.408C110.87 290.408 111.174 290.536 111.414 290.792C111.67 291.048 111.798 291.376 111.798 291.776C111.798 292.176 111.67 292.504 111.414 292.76C111.174 293 110.87 293.12 110.502 293.12ZM120.427 293.192C118.491 293.192 117.019 292.456 116.011 290.984C115.003 289.512 114.499 287.368 114.499 284.552C114.499 281.72 115.003 279.568 116.011 278.096C117.019 276.624 118.491 275.888 120.427 275.888C122.363 275.888 123.835 276.624 124.843 278.096C125.851 279.552 126.355 281.696 126.355 284.528C126.355 287.36 125.851 289.512 124.843 290.984C123.835 292.456 122.363 293.192 120.427 293.192ZM120.427 291.536C121.771 291.536 122.763 290.968 123.403 289.832C124.043 288.696 124.363 286.928 124.363 284.528C124.363 282.112 124.043 280.344 123.403 279.224C122.779 278.104 121.787 277.544 120.427 277.544C119.083 277.544 118.091 278.112 117.451 279.248C116.811 280.368 116.491 282.128 116.491 284.528C116.491 286.928 116.811 288.696 117.451 289.832C118.091 290.968 119.083 291.536 120.427 291.536ZM134.817 293.192C132.881 293.192 131.409 292.456 130.401 290.984C129.393 289.512 128.889 287.368 128.889 284.552C128.889 281.72 129.393 279.568 130.401 278.096C131.409 276.624 132.881 275.888 134.817 275.888C136.753 275.888 138.225 276.624 139.233 278.096C140.241 279.552 140.745 281.696 140.745 284.528C140.745 287.36 140.241 289.512 139.233 290.984C138.225 292.456 136.753 293.192 134.817 293.192ZM134.817 291.536C136.161 291.536 137.153 290.968 137.793 289.832C138.433 288.696 138.753 286.928 138.753 284.528C138.753 282.112 138.433 280.344 137.793 279.224C137.169 278.104 136.177 277.544 134.817 277.544C133.473 277.544 132.481 278.112 131.841 279.248C131.201 280.368 130.881 282.128 130.881 284.528C130.881 286.928 131.201 288.696 131.841 289.832C132.481 290.968 133.473 291.536 134.817 291.536ZM150.643 287.408C150.355 287.408 150.131 287.336 149.971 287.192C149.827 287.048 149.755 286.856 149.755 286.616C149.755 286.376 149.827 286.184 149.971 286.04C150.131 285.88 150.355 285.8 150.643 285.8H155.923C156.227 285.8 156.451 285.88 156.595 286.04C156.755 286.184 156.835 286.376 156.835 286.616C156.835 286.856 156.755 287.048 156.595 287.192C156.451 287.336 156.227 287.408 155.923 287.408H150.643ZM176.386 291.344C176.674 291.344 176.898 291.416 177.058 291.56C177.218 291.704 177.298 291.904 177.298 292.16C177.298 292.432 177.218 292.64 177.058 292.784C176.914 292.928 176.69 293 176.386 293H168.442C168.138 293 167.906 292.928 167.746 292.784C167.602 292.64 167.53 292.432 167.53 292.16C167.53 291.904 167.61 291.704 167.77 291.56C167.93 291.416 168.154 291.344 168.442 291.344H171.418V278.48L168.802 280.184C168.674 280.264 168.546 280.304 168.418 280.304C168.194 280.304 167.994 280.2 167.818 279.992C167.658 279.784 167.578 279.56 167.578 279.32C167.578 278.984 167.706 278.744 167.962 278.6L171.61 276.224C171.882 276.048 172.162 275.96 172.45 275.96C172.722 275.96 172.946 276.048 173.122 276.224C173.298 276.4 173.386 276.648 173.386 276.968V291.344H176.386ZM191.761 287.696C192.049 287.696 192.273 287.776 192.433 287.936C192.593 288.08 192.673 288.272 192.673 288.512C192.673 289.056 192.369 289.328 191.761 289.328H189.961V292.112C189.961 292.432 189.865 292.68 189.673 292.856C189.497 293.032 189.265 293.12 188.977 293.12C188.689 293.12 188.457 293.032 188.281 292.856C188.105 292.68 188.017 292.432 188.017 292.112V289.328H180.913C180.625 289.328 180.401 289.248 180.241 289.088C180.081 288.928 180.001 288.728 180.001 288.488C180.001 288.264 180.089 288.016 180.265 287.744L188.113 276.392C188.337 276.104 188.625 275.96 188.977 275.96C189.249 275.96 189.481 276.048 189.673 276.224C189.865 276.4 189.961 276.648 189.961 276.968V287.696H191.761ZM188.017 287.696V279.368L182.233 287.696H188.017ZM196.119 283.76C195.735 283.76 195.415 283.64 195.159 283.4C194.903 283.144 194.775 282.816 194.775 282.416C194.775 282.016 194.903 281.696 195.159 281.456C195.415 281.2 195.735 281.072 196.119 281.072C196.487 281.072 196.791 281.2 197.031 281.456C197.287 281.696 197.415 282.016 197.415 282.416C197.415 282.816 197.287 283.144 197.031 283.4C196.791 283.64 196.487 283.76 196.119 283.76ZM196.119 293.12C195.735 293.12 195.415 293 195.159 292.76C194.903 292.504 194.775 292.176 194.775 291.776C194.775 291.376 194.903 291.048 195.159 290.792C195.415 290.536 195.735 290.408 196.119 290.408C196.487 290.408 196.791 290.536 197.031 290.792C197.287 291.048 197.415 291.376 197.415 291.776C197.415 292.176 197.287 292.504 197.031 292.76C196.791 293 196.487 293.12 196.119 293.12ZM206.044 293.192C204.108 293.192 202.636 292.456 201.628 290.984C200.62 289.512 200.116 287.368 200.116 284.552C200.116 281.72 200.62 279.568 201.628 278.096C202.636 276.624 204.108 275.888 206.044 275.888C207.98 275.888 209.452 276.624 210.46 278.096C211.468 279.552 211.972 281.696 211.972 284.528C211.972 287.36 211.468 289.512 210.46 290.984C209.452 292.456 207.98 293.192 206.044 293.192ZM206.044 291.536C207.388 291.536 208.38 290.968 209.02 289.832C209.66 288.696 209.98 286.928 209.98 284.528C209.98 282.112 209.66 280.344 209.02 279.224C208.396 278.104 207.404 277.544 206.044 277.544C204.7 277.544 203.708 278.112 203.068 279.248C202.428 280.368 202.108 282.128 202.108 284.528C202.108 286.928 202.428 288.696 203.068 289.832C203.708 290.968 204.7 291.536 206.044 291.536ZM220.434 293.192C218.498 293.192 217.026 292.456 216.018 290.984C215.01 289.512 214.506 287.368 214.506 284.552C214.506 281.72 215.01 279.568 216.018 278.096C217.026 276.624 218.498 275.888 220.434 275.888C222.37 275.888 223.842 276.624 224.85 278.096C225.858 279.552 226.362 281.696 226.362 284.528C226.362 287.36 225.858 289.512 224.85 290.984C223.842 292.456 222.37 293.192 220.434 293.192ZM220.434 291.536C221.778 291.536 222.77 290.968 223.41 289.832C224.05 288.696 224.37 286.928 224.37 284.528C224.37 282.112 224.05 280.344 223.41 279.224C222.786 278.104 221.794 277.544 220.434 277.544C219.09 277.544 218.098 278.112 217.458 279.248C216.818 280.368 216.498 282.128 216.498 284.528C216.498 286.928 216.818 288.696 217.458 289.832C218.098 290.968 219.09 291.536 220.434 291.536Z" fill="white"/>
</g>
</g>
</g>
<defs>
<linearGradient id="paint0_linear" x1="161" y1="-6.82856e-08" x2="161" y2="571" gradientUnits="userSpaceOnUse">
<stop stop-color="#34BCE7"/>
<stop offset="1" stop-color="#DBFCF2"/>
</linearGradient>
<linearGradient id="paint1_linear" x1="229.5" y1="356.5" x2="287.5" y2="478.5" gradientUnits="userSpaceOnUse">
<stop stop-color="white"/>
<stop offset="1" stop-color="#56CCF2" stop-opacity="0.75"/>
</linearGradient>
<linearGradient id="paint2_linear" x1="129" y1="385.5" x2="96" y2="525" gradientUnits="userSpaceOnUse">
<stop stop-color="white"/>
<stop offset="1" stop-color="#56CCF2"/>
</linearGradient>
<linearGradient id="paint3_linear" x1="248.5" y1="451.5" x2="297.5" y2="551" gradientUnits="userSpaceOnUse">
<stop stop-color="white"/>
<stop offset="1" stop-color="#56CCF2"/>
</linearGradient>
<linearGradient id="paint4_linear" x1="163" y1="461.5" x2="155" y2="595" gradientUnits="userSpaceOnUse">
<stop stop-color="white"/>
<stop offset="1" stop-color="#56CCF2"/>
</linearGradient>
<linearGradient id="paint5_linear" x1="272" y1="520" x2="303" y2="579" gradientUnits="userSpaceOnUse">
<stop stop-color="white"/>
<stop offset="1" stop-color="#56CCF2"/>
</linearGradient>
<linearGradient id="paint6_linear" x1="92" y1="505.5" x2="62" y2="589" gradientUnits="userSpaceOnUse">
<stop stop-color="#FEFEFE"/>
<stop offset="1" stop-color="#56CCF2"/>
</linearGradient>
<clipPath id="clip0">
<rect width="321" height="571" rx="15" fill="white"/>
</clipPath>
</defs>
</svg>
