<svg width="321" height="571" viewBox="0 0 321 571" fill="none" xmlns="http://www.w3.org/2000/svg">
<g id="night-phase">
<g clip-path="url(#clip0)">
<g id="night">
<rect id="background" width="321" height="571" fill="url(#paint0_linear)"/>
<g id="stars">
<g id="Line 66">
<line x1="3.38572" y1="225.914" x2="371.614" y2="-27.3858" stroke="#FFE3C3" stroke-opacity="0.3" stroke-width="3" stroke-linecap="round" stroke-linejoin="round" stroke-dasharray="1 80"/>
<line x1="3.38572" y1="225.914" x2="371.614" y2="-27.3858" stroke="#FFE3C3" stroke-opacity="0.3" stroke-width="3" stroke-linecap="round" stroke-linejoin="round" stroke-dasharray="1 80"/>
<line x1="3.38572" y1="225.914" x2="371.614" y2="-27.3858" stroke="#FFE3C3" stroke-opacity="0.3" stroke-width="3" stroke-linecap="round" stroke-linejoin="round" stroke-dasharray="1 80"/>
</g>
<g id="Line 67">
<line x1="3.06117" y1="330.88" x2="321.88" y2="29.9388" stroke="#FFE3C3" stroke-opacity="0.3" stroke-width="3" stroke-linecap="round" stroke-linejoin="round" stroke-dasharray="1 80"/>
<line x1="3.06117" y1="330.88" x2="321.88" y2="29.9388" stroke="#FFE3C3" stroke-opacity="0.3" stroke-width="3" stroke-linecap="round" stroke-linejoin="round" stroke-dasharray="1 80"/>
<line x1="3.06117" y1="330.88" x2="321.88" y2="29.9388" stroke="#FFE3C3" stroke-opacity="0.3" stroke-width="3" stroke-linecap="round" stroke-linejoin="round" stroke-dasharray="1 80"/>
</g>
<g id="Line 68">
<line x1="22.1662" y1="394.885" x2="321.885" y2="138.834" stroke="#FFE3C3" stroke-opacity="0.3" stroke-width="3" stroke-linecap="round" stroke-linejoin="round" stroke-dasharray="1 80"/>
<line x1="22.1662" y1="394.885" x2="321.885" y2="138.834" stroke="#FFE3C3" stroke-opacity="0.3" stroke-width="3" stroke-linecap="round" stroke-linejoin="round" stroke-dasharray="1 80"/>
<line x1="22.1662" y1="394.885" x2="321.885" y2="138.834" stroke="#FFE3C3" stroke-opacity="0.3" stroke-width="3" stroke-linecap="round" stroke-linejoin="round" stroke-dasharray="1 80"/>
</g>
<g id="Line 69">
<line x1="144.118" y1="394.882" x2="321.882" y2="235.882" stroke="#FFE3C3" stroke-opacity="0.3" stroke-width="3" stroke-linecap="round" stroke-linejoin="round" stroke-dasharray="1 80"/>
<line x1="144.118" y1="394.882" x2="321.882" y2="235.882" stroke="#FFE3C3" stroke-opacity="0.3" stroke-width="3" stroke-linecap="round" stroke-linejoin="round" stroke-dasharray="1 80"/>
<line x1="144.118" y1="394.882" x2="321.882" y2="235.882" stroke="#FFE3C3" stroke-opacity="0.3" stroke-width="3" stroke-linecap="round" stroke-linejoin="round" stroke-dasharray="1 80"/>
</g>
<g id="Line 71">
<line x1="286.406" y1="346.964" x2="318.964" y2="287.594" stroke="#FFE3C3" stroke-opacity="0.3" stroke-width="3" stroke-linecap="round" stroke-linejoin="round" stroke-dasharray="1 80"/>
<line x1="286.406" y1="346.964" x2="318.964" y2="287.594" stroke="#FFE3C3" stroke-opacity="0.3" stroke-width="3" stroke-linecap="round" stroke-linejoin="round" stroke-dasharray="1 80"/>
<line x1="286.406" y1="346.964" x2="318.964" y2="287.594" stroke="#FFE3C3" stroke-opacity="0.3" stroke-width="3" stroke-linecap="round" stroke-linejoin="round" stroke-dasharray="1 80"/>
</g>
<g id="Line 70">
<line x1="3.6746" y1="104.989" x2="213.989" y2="0.325397" stroke="#FFE3C3" stroke-opacity="0.3" stroke-width="3" stroke-linecap="round" stroke-linejoin="round" stroke-dasharray="1 80"/>
<line x1="3.6746" y1="104.989" x2="213.989" y2="0.325397" stroke="#FFE3C3" stroke-opacity="0.3" stroke-width="3" stroke-linecap="round" stroke-linejoin="round" stroke-dasharray="1 80"/>
<line x1="3.6746" y1="104.989" x2="213.989" y2="0.325397" stroke="#FFE3C3" stroke-opacity="0.3" stroke-width="3" stroke-linecap="round" stroke-linejoin="round" stroke-dasharray="1 80"/>
</g>
</g>
<g id="sun">
<circle id="Ellipse 34" cx="163.5" cy="153.5" r="74.5" fill="#DFDFE7" fill-opacity="0.15"/>
<circle id="Ellipse 33" cx="164" cy="154" r="61" fill="#DFDFE7" fill-opacity="0.3"/>
<circle id="Ellipse 32" cx="163.5" cy="153.5" r="52.5" fill="#E4E4EF"/>
</g>
<g id="clouds">
<path id="Vector 58" d="M212.5 414C175.386 387.408 133.464 412.764 134 431V489.5H335.5V376C301.676 323.782 213.095 347.471 212.5 414Z" fill="url(#paint1_linear)"/>
<path id="Vector 54" d="M176 452.5C169.5 372.5 71.5 360 40 407C26.6623 394.807 17.799 392.659 -0.5 398V517.5H248.5V488.5C253.78 439.017 202.136 426.062 176 452.5Z" fill="url(#paint2_linear)"/>
<path id="Vector 57" d="M281 474.5C278.742 424.768 321.384 414.596 346.5 429V555.5H168V536C170.167 511.3 197.207 486.884 232 509C211.769 481.722 255.921 444.51 281 474.5Z" fill="url(#paint3_linear)"/>
<path id="Vector 59" d="M279 535C289.669 499.226 315.259 495.648 340.5 501.5V578.5H233C231.768 556.056 254.187 532.259 279 535Z" fill="url(#paint4_linear)"/>
<path id="Vector 56" d="M56.9998 498C40.4649 481.66 17.6295 495.526 18.9998 524V595H252.5C263.93 555.206 224.686 521.588 192 538C207.886 509.345 169.947 480.616 146.5 504C152.253 450.333 62.1166 435.57 56.9998 498Z" fill="url(#paint5_linear)"/>
<path id="Vector 55" d="M62 511C47.6459 477.264 -3.56584 472.483 -12.5 506V582.5H171C176.084 542.197 140.219 512.446 99 533C96.519 512.569 78.6858 502.431 62 511Z" fill="url(#paint6_linear)"/>
</g>
<path id="22:00 - 6:00" d="M105.192 291.344C105.48 291.344 105.704 291.416 105.864 291.56C106.024 291.704 106.104 291.904 106.104 292.16C106.104 292.72 105.8 293 105.192 293H95.784C95.512 293 95.288 292.92 95.112 292.76C94.936 292.584 94.848 292.376 94.848 292.136C94.848 291.832 94.96 291.568 95.184 291.344L100.968 284.984C101.768 284.088 102.344 283.288 102.696 282.584C103.064 281.864 103.248 281.144 103.248 280.424C103.248 279.496 102.976 278.784 102.432 278.288C101.904 277.792 101.152 277.544 100.176 277.544C99.408 277.544 98.672 277.688 97.968 277.976C97.264 278.248 96.56 278.672 95.856 279.248C95.616 279.44 95.392 279.536 95.184 279.536C95.008 279.536 94.856 279.456 94.728 279.296C94.6 279.12 94.536 278.912 94.536 278.672C94.536 278.336 94.664 278.064 94.92 277.856C95.576 277.248 96.376 276.768 97.32 276.416C98.264 276.064 99.232 275.888 100.224 275.888C101.744 275.888 102.952 276.288 103.848 277.088C104.76 277.888 105.216 278.968 105.216 280.328C105.216 281.304 104.992 282.24 104.544 283.136C104.112 284.032 103.392 285.032 102.384 286.136L97.584 291.344H105.192ZM119.583 291.344C119.871 291.344 120.095 291.416 120.255 291.56C120.415 291.704 120.495 291.904 120.495 292.16C120.495 292.72 120.191 293 119.583 293H110.175C109.903 293 109.679 292.92 109.503 292.76C109.327 292.584 109.239 292.376 109.239 292.136C109.239 291.832 109.351 291.568 109.575 291.344L115.359 284.984C116.159 284.088 116.735 283.288 117.087 282.584C117.455 281.864 117.639 281.144 117.639 280.424C117.639 279.496 117.367 278.784 116.823 278.288C116.295 277.792 115.543 277.544 114.567 277.544C113.799 277.544 113.063 277.688 112.359 277.976C111.655 278.248 110.951 278.672 110.247 279.248C110.007 279.44 109.783 279.536 109.575 279.536C109.399 279.536 109.247 279.456 109.119 279.296C108.991 279.12 108.927 278.912 108.927 278.672C108.927 278.336 109.055 278.064 109.311 277.856C109.967 277.248 110.767 276.768 111.711 276.416C112.655 276.064 113.623 275.888 114.615 275.888C116.135 275.888 117.343 276.288 118.239 277.088C119.151 277.888 119.607 278.968 119.607 280.328C119.607 281.304 119.383 282.24 118.935 283.136C118.503 284.032 117.783 285.032 116.775 286.136L111.975 291.344H119.583ZM124.541 283.76C124.157 283.76 123.837 283.64 123.581 283.4C123.325 283.144 123.197 282.816 123.197 282.416C123.197 282.016 123.325 281.696 123.581 281.456C123.837 281.2 124.157 281.072 124.541 281.072C124.909 281.072 125.213 281.2 125.453 281.456C125.709 281.696 125.837 282.016 125.837 282.416C125.837 282.816 125.709 283.144 125.453 283.4C125.213 283.64 124.909 283.76 124.541 283.76ZM124.541 293.12C124.157 293.12 123.837 293 123.581 292.76C123.325 292.504 123.197 292.176 123.197 291.776C123.197 291.376 123.325 291.048 123.581 290.792C123.837 290.536 124.157 290.408 124.541 290.408C124.909 290.408 125.213 290.536 125.453 290.792C125.709 291.048 125.837 291.376 125.837 291.776C125.837 292.176 125.709 292.504 125.453 292.76C125.213 293 124.909 293.12 124.541 293.12ZM134.466 293.192C132.53 293.192 131.058 292.456 130.05 290.984C129.042 289.512 128.538 287.368 128.538 284.552C128.538 281.72 129.042 279.568 130.05 278.096C131.058 276.624 132.53 275.888 134.466 275.888C136.402 275.888 137.874 276.624 138.882 278.096C139.89 279.552 140.394 281.696 140.394 284.528C140.394 287.36 139.89 289.512 138.882 290.984C137.874 292.456 136.402 293.192 134.466 293.192ZM134.466 291.536C135.81 291.536 136.802 290.968 137.442 289.832C138.082 288.696 138.402 286.928 138.402 284.528C138.402 282.112 138.082 280.344 137.442 279.224C136.818 278.104 135.826 277.544 134.466 277.544C133.122 277.544 132.13 278.112 131.49 279.248C130.85 280.368 130.53 282.128 130.53 284.528C130.53 286.928 130.85 288.696 131.49 289.832C132.13 290.968 133.122 291.536 134.466 291.536ZM148.856 293.192C146.92 293.192 145.448 292.456 144.44 290.984C143.432 289.512 142.928 287.368 142.928 284.552C142.928 281.72 143.432 279.568 144.44 278.096C145.448 276.624 146.92 275.888 148.856 275.888C150.792 275.888 152.264 276.624 153.272 278.096C154.28 279.552 154.784 281.696 154.784 284.528C154.784 287.36 154.28 289.512 153.272 290.984C152.264 292.456 150.792 293.192 148.856 293.192ZM148.856 291.536C150.2 291.536 151.192 290.968 151.832 289.832C152.472 288.696 152.792 286.928 152.792 284.528C152.792 282.112 152.472 280.344 151.832 279.224C151.208 278.104 150.216 277.544 148.856 277.544C147.512 277.544 146.52 278.112 145.88 279.248C145.24 280.368 144.92 282.128 144.92 284.528C144.92 286.928 145.24 288.696 145.88 289.832C146.52 290.968 147.512 291.536 148.856 291.536ZM164.682 287.408C164.394 287.408 164.17 287.336 164.01 287.192C163.866 287.048 163.794 286.856 163.794 286.616C163.794 286.376 163.866 286.184 164.01 286.04C164.17 285.88 164.394 285.8 164.682 285.8H169.962C170.266 285.8 170.49 285.88 170.634 286.04C170.794 286.184 170.874 286.376 170.874 286.616C170.874 286.856 170.794 287.048 170.634 287.192C170.49 287.336 170.266 287.408 169.962 287.408H164.682ZM186.513 282.368C187.537 282.368 188.449 282.592 189.249 283.04C190.049 283.488 190.673 284.12 191.121 284.936C191.569 285.752 191.793 286.688 191.793 287.744C191.793 288.784 191.561 289.72 191.097 290.552C190.633 291.384 189.985 292.032 189.153 292.496C188.321 292.96 187.385 293.192 186.345 293.192C184.297 293.192 182.713 292.48 181.593 291.056C180.489 289.632 179.937 287.6 179.937 284.96C179.937 283.072 180.193 281.448 180.705 280.088C181.217 278.728 181.961 277.688 182.937 276.968C183.913 276.248 185.073 275.888 186.417 275.888C187.329 275.888 188.233 276.064 189.129 276.416C190.041 276.768 190.817 277.248 191.457 277.856C191.729 278.112 191.865 278.384 191.865 278.672C191.865 278.912 191.801 279.112 191.673 279.272C191.545 279.432 191.393 279.512 191.217 279.512C190.993 279.512 190.761 279.424 190.521 279.248C189.129 278.112 187.777 277.544 186.465 277.544C185.041 277.544 183.929 278.192 183.129 279.488C182.329 280.784 181.929 282.6 181.929 284.936V285.248C182.297 284.352 182.889 283.648 183.705 283.136C184.537 282.624 185.473 282.368 186.513 282.368ZM186.249 291.536C187.337 291.536 188.209 291.192 188.865 290.504C189.521 289.816 189.849 288.904 189.849 287.768C189.849 286.632 189.513 285.728 188.841 285.056C188.185 284.368 187.313 284.024 186.225 284.024C185.121 284.024 184.217 284.376 183.513 285.08C182.825 285.768 182.481 286.664 182.481 287.768C182.481 288.888 182.825 289.8 183.513 290.504C184.217 291.192 185.129 291.536 186.249 291.536ZM195.744 283.76C195.36 283.76 195.04 283.64 194.784 283.4C194.528 283.144 194.4 282.816 194.4 282.416C194.4 282.016 194.528 281.696 194.784 281.456C195.04 281.2 195.36 281.072 195.744 281.072C196.112 281.072 196.416 281.2 196.656 281.456C196.912 281.696 197.04 282.016 197.04 282.416C197.04 282.816 196.912 283.144 196.656 283.4C196.416 283.64 196.112 283.76 195.744 283.76ZM195.744 293.12C195.36 293.12 195.04 293 194.784 292.76C194.528 292.504 194.4 292.176 194.4 291.776C194.4 291.376 194.528 291.048 194.784 290.792C195.04 290.536 195.36 290.408 195.744 290.408C196.112 290.408 196.416 290.536 196.656 290.792C196.912 291.048 197.04 291.376 197.04 291.776C197.04 292.176 196.912 292.504 196.656 292.76C196.416 293 196.112 293.12 195.744 293.12ZM205.669 293.192C203.733 293.192 202.261 292.456 201.253 290.984C200.245 289.512 199.741 287.368 199.741 284.552C199.741 281.72 200.245 279.568 201.253 278.096C202.261 276.624 203.733 275.888 205.669 275.888C207.605 275.888 209.077 276.624 210.085 278.096C211.093 279.552 211.597 281.696 211.597 284.528C211.597 287.36 211.093 289.512 210.085 290.984C209.077 292.456 207.605 293.192 205.669 293.192ZM205.669 291.536C207.013 291.536 208.005 290.968 208.645 289.832C209.285 288.696 209.605 286.928 209.605 284.528C209.605 282.112 209.285 280.344 208.645 279.224C208.021 278.104 207.029 277.544 205.669 277.544C204.325 277.544 203.333 278.112 202.693 279.248C202.053 280.368 201.733 282.128 201.733 284.528C201.733 286.928 202.053 288.696 202.693 289.832C203.333 290.968 204.325 291.536 205.669 291.536ZM220.059 293.192C218.123 293.192 216.651 292.456 215.643 290.984C214.635 289.512 214.131 287.368 214.131 284.552C214.131 281.72 214.635 279.568 215.643 278.096C216.651 276.624 218.123 275.888 220.059 275.888C221.995 275.888 223.467 276.624 224.475 278.096C225.483 279.552 225.987 281.696 225.987 284.528C225.987 287.36 225.483 289.512 224.475 290.984C223.467 292.456 221.995 293.192 220.059 293.192ZM220.059 291.536C221.403 291.536 222.395 290.968 223.035 289.832C223.675 288.696 223.995 286.928 223.995 284.528C223.995 282.112 223.675 280.344 223.035 279.224C222.411 278.104 221.419 277.544 220.059 277.544C218.715 277.544 217.723 278.112 217.083 279.248C216.443 280.368 216.123 282.128 216.123 284.528C216.123 286.928 216.443 288.696 217.083 289.832C217.723 290.968 218.715 291.536 220.059 291.536Z" fill="white"/>
</g>
</g>
</g>
<defs>
<linearGradient id="paint0_linear" x1="161" y1="2.69251e-06" x2="161" y2="571" gradientUnits="userSpaceOnUse">
<stop stop-color="#070A1D"/>
<stop offset="1" stop-color="#666AC5"/>
</linearGradient>
<linearGradient id="paint1_linear" x1="219" y1="359.5" x2="256.5" y2="476" gradientUnits="userSpaceOnUse">
<stop stop-color="#8F93ED"/>
<stop offset="1" stop-color="#0B1136"/>
</linearGradient>
<linearGradient id="paint2_linear" x1="131" y1="380" x2="96" y2="525" gradientUnits="userSpaceOnUse">
<stop stop-color="#8F93ED"/>
<stop offset="1" stop-color="#0B1136"/>
</linearGradient>
<linearGradient id="paint3_linear" x1="248.5" y1="451.5" x2="290.5" y2="551" gradientUnits="userSpaceOnUse">
<stop stop-color="#8F93ED"/>
<stop offset="1" stop-color="#0B1136"/>
</linearGradient>
<linearGradient id="paint4_linear" x1="272" y1="520" x2="319.5" y2="590" gradientUnits="userSpaceOnUse">
<stop stop-color="#8F93ED"/>
<stop offset="1" stop-color="#0B1136"/>
</linearGradient>
<linearGradient id="paint5_linear" x1="200" y1="468.5" x2="137" y2="619" gradientUnits="userSpaceOnUse">
<stop stop-color="#8F93ED"/>
<stop offset="1" stop-color="#0B1136"/>
</linearGradient>
<linearGradient id="paint6_linear" x1="92" y1="505.5" x2="42.5" y2="607.5" gradientUnits="userSpaceOnUse">
<stop stop-color="#8F93ED"/>
<stop offset="1" stop-color="#0B1136"/>
</linearGradient>
<clipPath id="clip0">
<rect width="321" height="571" rx="15" fill="white"/>
</clipPath>
</defs>
</svg>
